<svg width="286" height="282" xmlns="http://www.w3.org/2000/svg" xmlns:xlink="http://www.w3.org/1999/xlink" overflow="hidden"><defs><clipPath id="clip0"><rect x="498" y="212" width="286" height="282"/></clipPath><linearGradient x1="641.5" y1="493" x2="641.5" y2="212" gradientUnits="userSpaceOnUse" spreadMethod="reflect" id="fill1"><stop offset="0" stop-color="#FCC24B"/><stop offset="0.51" stop-color="#FF8C0E"/><stop offset="1" stop-color="#FFC687"/></linearGradient></defs><g clip-path="url(#clip0)" transform="translate(-498 -212)"><path d="M499 260.121C499 233.545 520.545 212 547.121 212L735.879 212C762.455 212 784 233.545 784 260.121L784 444.879C784 471.455 762.455 493 735.879 493L547.121 493C520.545 493 499 471.455 499 444.879Z" fill="url(#fill1)" fill-rule="evenodd"/><path d="M499 260.224C499 233.591 520.606 212 547.259 212L735.741 212C762.394 212 784 233.591 784 260.224L783.293 323.119C763.491 344.099 666.125 355 639.473 355 589.554 353.059 551.747 352.621 499 325.946L499 260.224Z" fill="#FFFFFF" fill-rule="evenodd" fill-opacity="0.270588"/><path d="M58.2748 204.115C6.24841 204.956 2.37298 208.323 0.693418 192.598-0.0927596 190.27-0.191003 168.348 0.300291 101.867L0.889982 9.17888C-1.0867-2.33737 8.96632 0.127083 56.5951 0.417261 104.224 0.70744 115.064-0.0180067 113.313 7.86343 114.001 8.57175 114.59 43.3805 114.984 102.474 115.213 133.607 116.629 171.332 115.671 190.776 114.71 210.297 108.552 203.302 58.2748 204.115ZM96.6546 186.167C96.5716 169.007 97.8292 135.984 97.3929 120.385L58.4772 120.081C27.4233 119.879 19.2668 119.826 18.4806 120.939 18.3824 135.603 20.0076 171.93 19.365 186.663L96.6546 186.167ZM74.5005 99.6445C85.2122 95.1923 93.6585 83.0462 96.6067 70.6001 97.9826 64.9335 98.0808 62.7074 97.098 56.029 93.7569 32.0474 74.5938 16.9704 51.9913 20.4108 42.4589 21.9286 37.1523 24.5595 30.4698 31.0355 17.891 43.2793 13.6653 64.63 21.134 78.5939 27.4233 90.2305 33.8993 97.4149 46.7729 101.766 51.5882 103.486 67.5232 102.579 74.5005 99.6445Z" fill="#000000" fill-rule="evenodd" fill-opacity="0.2" transform="matrix(1 0 0 -1 585 454)"/><path d="M625 392.5C625 381.73 632.835 373 642.5 373 652.165 373 660 381.73 660 392.5 660 403.27 652.165 412 642.5 412 632.835 412 625 403.27 625 392.5Z" fill="#000000" fill-rule="evenodd" fill-opacity="0.2"/><path d="M58.2748 203.119C6.24841 203.957 2.37298 207.307 0.693418 191.658-0.0927596 189.342-0.191003 167.527 0.300291 101.37L0.889982 9.1341C-1.0867-2.32596 8.96632 0.126463 56.5951 0.415226 104.224 0.703989 115.064-0.0179189 113.313 7.82507 114.001 8.52993 114.59 43.1688 114.984 101.974 115.213 132.955 116.629 170.497 115.671 189.846 114.71 209.271 108.552 202.31 58.2748 203.119ZM96.6546 185.259C96.5716 168.183 97.8292 135.321 97.3929 119.797L58.4772 119.495C27.4233 119.294 19.2668 119.242 18.4806 120.349 18.3824 134.941 20.0076 171.092 19.365 185.752L96.6546 185.259ZM74.5005 99.1585C85.2122 94.7279 93.6585 82.6411 96.6067 70.2557 97.9826 64.6168 98.0808 62.4015 97.098 55.7557 93.7569 31.8911 74.5938 16.8876 51.9913 20.3112 42.4589 21.8216 37.1523 24.4397 30.4698 30.8841 17.891 43.0681 13.6653 64.3147 21.134 78.2105 27.4233 89.7904 33.8993 96.9397 46.7729 101.27 51.5882 102.981 67.5232 102.079 74.5005 99.1585Z" fill="#FFFFFF" fill-rule="evenodd" transform="matrix(1 0 0 -1 585 455)"/><path d="M625 393.5C625 382.73 632.835 374 642.5 374 652.165 374 660 382.73 660 393.5 660 404.27 652.165 413 642.5 413 632.835 413 625 404.27 625 393.5Z" fill="#FFFFFF" fill-rule="evenodd"/></g></svg>